<svg width="32" height="32" viewBox="0 0 32 32" fill="none" xmlns="http://www.w3.org/2000/svg">
<path d="M15.9993 2.6665C8.63935 2.6665 2.66602 8.63984 2.66602 15.9998C2.66602 23.3598 8.63935 29.3332 15.9993 29.3332C23.3594 29.3332 29.3327 23.3598 29.3327 15.9998C29.3327 8.63984 23.3594 2.6665 15.9993 2.6665ZM15.9993 6.6665C18.2127 6.6665 19.9993 8.45317 19.9993 10.6665C19.9993 12.8798 18.2127 14.6665 15.9993 14.6665C13.786 14.6665 11.9993 12.8798 11.9993 10.6665C11.9993 8.45317 13.786 6.6665 15.9993 6.6665ZM15.9993 25.5998C12.666 25.5998 9.71935 23.8932 7.99935 21.3065C8.03935 18.6532 13.3327 17.1998 15.9993 17.1998C18.6527 17.1998 23.9593 18.6532 23.9993 21.3065C22.2794 23.8932 19.3327 25.5998 15.9993 25.5998Z" fill="#555E6B"/>
</svg>
