<svg width="16" height="16" viewBox="0 0 16 16" fill="none" xmlns="http://www.w3.org/2000/svg">
<path d="M14.5 8C14.5 11.5899 11.5899 14.5 8 14.5C4.41015 14.5 1.5 11.5899 1.5 8C1.5 4.41015 4.41015 1.5 8 1.5C11.5899 1.5 14.5 4.41015 14.5 8Z" stroke="#FA4235"/>
<path fill-rule="evenodd" clip-rule="evenodd" d="M8.88811 8.01802L9.73969 8.86957C9.97998 9.10985 9.97998 9.49942 9.73969 9.7397C9.4994 9.97998 9.10981 9.97998 8.87016 9.7397L8.01794 8.88815L7.09395 9.8121C6.84341 10.0626 6.43781 10.0626 6.18791 9.8121C5.93736 9.56221 5.93736 9.15598 6.18791 8.90609L7.11189 7.98214L6.26031 7.12995C6.02002 6.88967 6.02002 6.5001 6.26031 6.26046C6.5006 6.02018 6.88955 6.02018 7.12984 6.26046L7.98206 7.11201L8.90605 6.18742C9.15659 5.93753 9.56219 5.93753 9.81209 6.18742C10.0626 6.43795 10.0626 6.84354 9.81209 7.09407L8.88811 8.01802Z" fill="#FA4235"/>
</svg>
