<svg width="32" height="32" viewBox="0 0 32 32" fill="none" xmlns="http://www.w3.org/2000/svg">
<path fill-rule="evenodd" clip-rule="evenodd" d="M0.43335 5.33335C0.43335 4.83629 0.836293 4.43335 1.33335 4.43335H4.00002C4.40587 4.43335 4.76152 4.70499 4.8683 5.09654L5.79037 8.47747L25.3925 9.76863C25.8656 9.79979 26.2334 10.1926 26.2334 10.6667V18.6667C26.2334 19.137 25.8713 19.528 25.4024 19.564L8.06904 20.8974C7.63862 20.9305 7.24532 20.6533 7.13173 20.2368L4.22264 9.57016L3.3126 6.23335H1.33335C0.836293 6.23335 0.43335 5.83041 0.43335 5.33335ZM10.2065 11.7817C10.0859 11.2995 9.59728 11.0063 9.11507 11.1269C8.63285 11.2474 8.33967 11.7361 8.46022 12.2183L9.79355 17.5516C9.91411 18.0338 10.4027 18.327 10.885 18.2065C11.3672 18.0859 11.6604 17.5973 11.5398 17.1151L10.2065 11.7817ZM15.2061 11.4424C15.6981 11.3721 16.154 11.714 16.2243 12.2061L16.891 16.8727C16.9613 17.3648 16.6194 17.8207 16.1273 17.891C15.6352 17.9613 15.1794 17.6194 15.1091 17.1273L14.4424 12.4606C14.3721 11.9686 14.714 11.5127 15.2061 11.4424ZM22.2334 12.6667C22.2334 12.1696 21.8304 11.7667 21.3334 11.7667C20.8363 11.7667 20.4334 12.1696 20.4334 12.6667V16.6667C20.4334 17.1637 20.8363 17.5667 21.3334 17.5667C21.8304 17.5667 22.2334 17.1637 22.2334 16.6667V12.6667ZM13.3334 25.3333C13.3334 26.8061 12.1395 28 10.6667 28C9.19395 28 8.00004 26.8061 8.00004 25.3333C8.00004 23.8606 9.19395 22.6667 10.6667 22.6667C12.1395 22.6667 13.3334 23.8606 13.3334 25.3333ZM21.3334 28C22.8061 28 24 26.8061 24 25.3333C24 23.8606 22.8061 22.6667 21.3334 22.6667C19.8606 22.6667 18.6667 23.8606 18.6667 25.3333C18.6667 26.8061 19.8606 28 21.3334 28Z" fill="#2B2A29"/>
</svg>
