<svg width="20" height="20" viewBox="0 0 20 20" fill="none" xmlns="http://www.w3.org/2000/svg">
<path fill-rule="evenodd" clip-rule="evenodd" d="M7.74486 17.5C6.36486 17.5 5.0532 16.945 4.05153 15.9375C2.06153 13.935 1.97986 10.76 3.86903 8.85913L10.024 2.66746C10.6649 2.02246 11.5299 1.66663 12.459 1.66663C13.4532 1.66663 14.3982 2.06579 15.119 2.79079C16.5532 4.23329 16.6082 6.52579 15.2407 7.90079L9.0782 14.0916C8.67903 14.4941 8.14153 14.715 7.56486 14.715C6.9557 14.715 6.3782 14.4716 5.93986 14.0308C5.06236 13.1466 5.03486 11.7375 5.87903 10.8875L11.5665 5.17496C11.8915 4.84829 12.4182 4.84663 12.7449 5.17163C13.0707 5.49663 13.0724 6.02413 12.7474 6.34996L7.0607 12.0633C6.8607 12.265 6.8882 12.6208 7.12236 12.8558C7.24403 12.9783 7.4057 13.0483 7.56486 13.0483C7.65653 13.0483 7.7882 13.0258 7.89653 12.9166L14.059 6.72579C14.7815 5.99829 14.7274 4.76079 13.9374 3.96579C13.1815 3.20579 11.899 3.14579 11.2057 3.84246L5.0507 10.0341C3.8057 11.2866 3.88736 13.4083 5.23403 14.7625C5.91986 15.4533 6.81153 15.8333 7.74486 15.8333C8.57903 15.8333 9.35236 15.5183 9.9207 14.9466L16.0765 8.75496C16.4007 8.42913 16.9282 8.42663 17.2549 8.75163C17.5807 9.07663 17.5824 9.60329 17.2582 9.92996L11.1024 16.1216C10.219 17.01 9.02653 17.5 7.74486 17.5Z" fill="#222B45"/>
<mask id="mask0" mask-type="alpha" maskUnits="userSpaceOnUse" x="2" y="1" width="16" height="17">
<path fill-rule="evenodd" clip-rule="evenodd" d="M7.74486 17.5C6.36486 17.5 5.0532 16.945 4.05153 15.9375C2.06153 13.935 1.97986 10.76 3.86903 8.85913L10.024 2.66746C10.6649 2.02246 11.5299 1.66663 12.459 1.66663C13.4532 1.66663 14.3982 2.06579 15.119 2.79079C16.5532 4.23329 16.6082 6.52579 15.2407 7.90079L9.0782 14.0916C8.67903 14.4941 8.14153 14.715 7.56486 14.715C6.9557 14.715 6.3782 14.4716 5.93986 14.0308C5.06236 13.1466 5.03486 11.7375 5.87903 10.8875L11.5665 5.17496C11.8915 4.84829 12.4182 4.84663 12.7449 5.17163C13.0707 5.49663 13.0724 6.02413 12.7474 6.34996L7.0607 12.0633C6.8607 12.265 6.8882 12.6208 7.12236 12.8558C7.24403 12.9783 7.4057 13.0483 7.56486 13.0483C7.65653 13.0483 7.7882 13.0258 7.89653 12.9166L14.059 6.72579C14.7815 5.99829 14.7274 4.76079 13.9374 3.96579C13.1815 3.20579 11.899 3.14579 11.2057 3.84246L5.0507 10.0341C3.8057 11.2866 3.88736 13.4083 5.23403 14.7625C5.91986 15.4533 6.81153 15.8333 7.74486 15.8333C8.57903 15.8333 9.35236 15.5183 9.9207 14.9466L16.0765 8.75496C16.4007 8.42913 16.9282 8.42663 17.2549 8.75163C17.5807 9.07663 17.5824 9.60329 17.2582 9.92996L11.1024 16.1216C10.219 17.01 9.02653 17.5 7.74486 17.5Z" fill="white"/>
</mask>
<g mask="url(#mask0)">
</g>
</svg>
