<svg width="24" height="24" viewBox="0 0 24 24" fill="none" xmlns="http://www.w3.org/2000/svg">
<path fill-rule="evenodd" clip-rule="evenodd" d="M12.002 21.9998C17.5248 21.9998 22.002 17.5227 22.002 11.9998C22.002 6.47697 17.5248 1.99982 12.002 1.99982C6.47911 1.99982 2.00195 6.47697 2.00195 11.9998C2.00195 17.5227 6.47911 21.9998 12.002 21.9998ZM12.902 6.99971C12.902 6.50266 12.499 6.09971 12.002 6.09971C11.5049 6.09971 11.102 6.50266 11.102 6.99971V11.8527C11.102 12.0825 11.1899 12.3035 11.3476 12.4706L13.8476 15.1177C14.1889 15.479 14.7585 15.4953 15.1199 15.154C15.4813 14.8127 15.4976 14.2431 15.1563 13.8818L12.902 11.4948V6.99971Z" fill="#99C618"/>
</svg>
