<svg width="8" height="8" viewBox="0 0 8 8" fill="none" xmlns="http://www.w3.org/2000/svg">
<path fill-rule="evenodd" clip-rule="evenodd" d="M5.77621 4.03604L7.47938 5.73914C7.95995 6.21969 7.95995 6.99884 7.47938 7.4794C6.9988 7.95995 6.21962 7.95995 5.74033 7.4794L4.03588 5.7763L2.18791 7.6242C1.68682 8.12527 0.875611 8.12527 0.375811 7.6242C-0.12527 7.12442 -0.12527 6.31196 0.375811 5.81218L2.22379 3.96428L0.520625 2.2599C0.0400481 1.77934 0.0400481 1.0002 0.520625 0.520924C1.0012 0.0403668 1.77909 0.0403668 2.25967 0.520924L3.96412 2.22402L5.8121 0.374835C6.31318 -0.124945 7.12439 -0.124945 7.62419 0.374835C8.12527 0.875896 8.12527 1.68708 7.62419 2.18814L5.77621 4.03604Z" fill="#FA4235"/>
</svg>
