<svg width="32" height="32" viewBox="0 0 32 32" fill="none" xmlns="http://www.w3.org/2000/svg">
<path d="M29.3346 15.9998L24.0013 10.6665V14.6665H13.3346V17.3332H24.0013V21.3332L29.3346 15.9998ZM26.668 23.9998C24.9889 26.2386 22.648 27.8923 19.9769 28.7267C17.3057 29.5611 14.4398 29.5339 11.7849 28.6489C9.13011 27.764 6.82101 26.0662 5.18474 23.796C3.54847 21.5258 2.66797 18.7983 2.66797 15.9998C2.66797 13.2014 3.54847 10.4739 5.18474 8.2037C6.82101 5.93349 9.13011 4.23567 11.7849 3.35073C14.4398 2.46578 17.3057 2.43859 19.9769 3.27299C22.648 4.10739 24.9889 5.76109 26.668 7.99984H23.028C21.4884 6.64206 19.5897 5.75736 17.5598 5.45191C15.5299 5.14647 13.4549 5.43325 11.584 6.27783C9.71299 7.12242 8.12546 8.48894 7.01188 10.2134C5.8983 11.9379 5.30597 13.9471 5.30597 15.9998C5.30597 18.0526 5.8983 20.0618 7.01188 21.7863C8.12546 23.5107 9.71299 24.8773 11.584 25.7218C13.4549 26.5664 15.5299 26.8532 17.5598 26.5478C19.5897 26.2423 21.4884 25.3576 23.028 23.9998H26.668Z" fill="#555E6B"/>
</svg>
