<svg width="24" height="24" viewBox="0 0 24 24" fill="none" xmlns="http://www.w3.org/2000/svg">
<path fill-rule="evenodd" clip-rule="evenodd" d="M12 22C12 22 20 16.5455 20 10.1818C20 8.01187 19.1571 5.93079 17.6569 4.3964C16.1566 2.86201 14.1217 2 12 2C9.87827 2 7.84344 2.86201 6.34315 4.3964C4.84285 5.93079 4 8.01187 4 10.1818C4 16.5455 12 22 12 22ZM15.5617 10.1823C15.5617 12.1906 13.9698 13.8186 12.0061 13.8186C10.0424 13.8186 8.45056 12.1906 8.45056 10.1823C8.45056 8.17395 10.0424 6.5459 12.0061 6.5459C13.9698 6.5459 15.5617 8.17395 15.5617 10.1823Z" fill="#99C618"/>
</svg>
