<svg width="32" height="32" viewBox="0 0 32 32" fill="none" xmlns="http://www.w3.org/2000/svg">
<path d="M22.6667 28L19 24L20.5467 22.4533L22.6667 24.5733L27.4533 19.7867L29 21.6667L22.6667 28ZM17.0667 28H6.66667C5.18667 28 4 26.8 4 25.3333V6.66667C4 5.18667 5.18667 4 6.66667 4H25.3333C26.0406 4 26.7189 4.28095 27.219 4.78105C27.719 5.28115 28 5.95942 28 6.66667V17.0667C26.8267 16.3867 25.4533 16 24 16L22.6667 16.1067V14.6667H9.33333V17.3333H19.5867C17.4267 18.76 16 21.2133 16 24C16 25.4533 16.3867 26.8267 17.0667 28ZM16 20H9.33333V22.6667H16V20ZM22.6667 9.33333H9.33333V12H22.6667" fill="#555E6B"/>
</svg>
