<svg width="48" height="44" viewBox="0 0 48 44" fill="none" xmlns="http://www.w3.org/2000/svg">
<path d="M30.0669 27.4236L29.1553 28.791C28.9734 29.064 28.7327 29.2969 28.4156 29.3807C27.3767 29.6552 24.6188 29.7791 20.4198 25.5802C16.2209 21.3813 16.3448 18.6233 16.6193 17.5844C16.7031 17.2673 16.936 17.0266 17.209 16.8447L18.5764 15.9331C19.5945 15.2543 19.8696 13.8788 19.1909 12.8607L16.6082 8.98679C16.0158 8.09817 14.8738 7.75866 13.8921 8.17937L12.7271 8.67866C11.8421 9.05796 11.1201 9.73868 10.6895 10.5999C10.3298 11.3194 10.0509 12.0771 10.0131 12.8807C9.89408 15.413 10.4494 21.652 17.3987 28.6013C24.3481 35.5507 30.587 36.1059 33.1193 35.9869C33.9229 35.9491 34.6806 35.6702 35.4001 35.3105C36.2613 34.8799 36.942 34.1579 37.3213 33.2729L37.8206 32.1079C38.2413 31.1262 37.9018 29.9842 37.0132 29.3918L33.1393 26.8091C32.1212 26.1304 30.7457 26.4055 30.0669 27.4236Z" fill="#191A1B"/>
</svg>
