<svg width="64" height="56" viewBox="0 0 64 56" fill="none" xmlns="http://www.w3.org/2000/svg">
<path d="M38.0002 22C38.0002 25.3137 35.3139 28 32.0002 28C28.6865 28 26.0002 25.3137 26.0002 22C26.0002 18.6863 28.6865 16 32.0002 16C35.3139 16 38.0002 18.6863 38.0002 22Z" fill="#191A1B"/>
<path fill-rule="evenodd" clip-rule="evenodd" d="M22.8781 38.6661C20.7471 38.0129 19.9252 35.5019 21.6384 34.076C24.147 31.9881 27.8586 30.6665 31.9999 30.6665C36.1413 30.6665 39.8529 31.9881 42.3616 34.0761C44.0747 35.5019 43.2528 38.013 41.1218 38.6662C38.3209 39.5247 35.2377 39.9998 32 39.9998C28.7622 39.9998 25.679 39.5247 22.8781 38.6661Z" fill="#191A1B"/>
</svg>
