<svg width="20" height="20" viewBox="0 0 20 20" fill="none" xmlns="http://www.w3.org/2000/svg">
<path d="M13.7501 6.25C13.7501 8.32107 12.0712 10 10.0001 10C7.92905 10 6.25012 8.32107 6.25012 6.25C6.25012 4.17893 7.92905 2.5 10.0001 2.5C12.0712 2.5 13.7501 4.17893 13.7501 6.25Z" fill="#99C618"/>
<path fill-rule="evenodd" clip-rule="evenodd" d="M5.76803 17.0506C3.5904 16.5754 2.82919 14.0254 4.77834 12.9443C6.22268 12.1432 8.03379 11.6666 9.9999 11.6666C11.966 11.6666 13.7772 12.1432 15.2215 12.9443C17.1707 14.0254 16.4094 16.5755 14.2318 17.0506C12.8928 17.3428 11.4719 17.5 9.99998 17.5C8.52797 17.5 7.10707 17.3428 5.76803 17.0506Z" fill="#99C618"/>
</svg>
