<svg width="16" height="16" viewBox="0 0 16 16" fill="none" xmlns="http://www.w3.org/2000/svg">
<g id="Viber">
<path id="Viber_2" fill-rule="evenodd" clip-rule="evenodd" d="M8 -1.33514e-05C12.4183 -1.33514e-05 16 3.58171 16 7.99999C16 12.4183 12.4183 16 8 16C3.58172 16 0 12.4183 0 7.99999C0 3.58171 3.58172 -1.33514e-05 8 -1.33514e-05Z" fill="#30C55A"/>
<path id="Path" fill-rule="evenodd" clip-rule="evenodd" d="M11.6016 10.1691C11.5873 10.127 11.5539 10.0621 11.53 10.0249C11.3797 9.79657 10.5719 9.16084 10.1685 8.95293C9.93823 8.83397 9.7676 8.79432 9.64111 8.83156C9.50508 8.87003 9.43348 8.93371 9.20556 9.21853C9.11369 9.33269 9.01942 9.43966 8.99436 9.45647C8.93231 9.49973 8.8106 9.5346 8.72468 9.5346C8.52541 9.53338 8.16385 9.4036 7.88582 9.23294C7.66984 9.10077 7.39302 8.86403 7.18061 8.62968C6.93001 8.35448 6.7594 8.11173 6.62454 7.83773C6.45034 7.48562 6.40618 7.2705 6.47896 7.11307C6.49687 7.07342 6.52074 7.03137 6.53146 7.01813C6.54221 7.00613 6.65438 6.91359 6.77847 6.81264C7.0219 6.61796 7.06128 6.5735 7.10662 6.4401C7.16389 6.27065 7.14839 6.0976 7.06009 5.92336C6.99206 5.79116 6.81427 5.50274 6.6854 5.31648C6.51477 5.07133 6.08996 4.54737 6.00523 4.47645C5.8525 4.35148 5.65682 4.32983 5.44082 4.41397C5.21293 4.5029 4.78573 4.849 4.60315 5.09056C4.43848 5.30927 4.37526 5.46429 4.3657 5.66858C4.35736 5.83682 4.37167 5.90652 4.45997 6.12164C5.15087 7.80888 6.18183 9.15603 7.59825 10.2256C8.33807 10.7844 9.10533 11.2098 9.90123 11.5007C10.3654 11.6701 10.5671 11.6785 10.8045 11.5391C10.9048 11.479 11.153 11.223 11.2914 11.0368C11.5205 10.7267 11.6052 10.5837 11.6291 10.4695C11.6458 10.3914 11.6327 10.2556 11.6016 10.1691Z" fill="white"/>
</g>
</svg>
