<?xml version="1.0" encoding="utf-8"?><svg xmlns="http://www.w3.org/2000/svg" xmlns:xlink="http://www.w3.org/1999/xlink"><symbol viewBox="0 0 48 44" id="Phone-24px" xmlns="http://www.w3.org/2000/svg"><path d="M30.067 27.424l-.912 1.367c-.182.273-.422.506-.74.59-1.038.274-3.796.398-7.995-3.8-4.2-4.2-4.075-6.958-3.8-7.997.083-.317.316-.557.589-.74l1.367-.91a2.216 2.216 0 00.615-3.073l-2.583-3.874a2.215 2.215 0 00-2.716-.808l-1.165.5a4.071 4.071 0 00-2.037 1.92c-.36.72-.64 1.478-.677 2.282-.119 2.532.436 8.771 7.386 15.72 6.95 6.95 13.188 7.505 15.72 7.386.804-.038 1.562-.317 2.281-.677a4.071 4.071 0 001.921-2.037l.5-1.165a2.215 2.215 0 00-.808-2.716l-3.874-2.583a2.216 2.216 0 00-3.072.615z"/></symbol><symbol viewBox="0 0 16 16" id="Viber" xmlns="http://www.w3.org/2000/svg"><g fill-rule="evenodd" clip-rule="evenodd"><path d="M8 0a8 8 0 110 16A8 8 0 018 0z"/><path d="M11.602 10.17a.804.804 0 00-.072-.145c-.15-.228-.958-.864-1.361-1.072-.23-.119-.401-.159-.528-.121-.136.038-.208.102-.435.387a2.13 2.13 0 01-.212.237.554.554 0 01-.27.079c-.199-.002-.56-.131-.838-.302a3.596 3.596 0 01-.705-.603 3.328 3.328 0 01-.556-.792c-.175-.352-.219-.567-.146-.725a.586.586 0 01.052-.095c.011-.012.123-.104.247-.205.244-.195.283-.24.329-.373a.647.647 0 00-.047-.517 7.212 7.212 0 00-.375-.607c-.17-.245-.595-.769-.68-.84-.152-.125-.348-.146-.564-.062-.228.089-.655.435-.838.677-.165.218-.228.373-.237.578-.009.168.006.238.094.453.69 1.687 1.722 3.034 3.138 4.104.74.558 1.507.984 2.303 1.275.464.17.666.178.904.038.1-.06.348-.316.486-.502.23-.31.314-.453.338-.568a.656.656 0 00-.027-.3z"/></g></symbol><symbol viewBox="0 0 32 32" id="account-circle" xmlns="http://www.w3.org/2000/svg"><path d="M16 2.667C8.64 2.667 2.665 8.64 2.665 16s5.973 13.333 13.333 13.333S29.333 23.36 29.333 16 23.359 2.666 15.999 2.666zm0 4c2.213 0 4 1.786 4 4 0 2.213-1.787 4-4 4-2.214 0-4-1.787-4-4 0-2.214 1.786-4 4-4zM16 25.6a9.6 9.6 0 01-8-4.294c.04-2.653 5.333-4.106 8-4.106 2.653 0 7.96 1.453 8 4.107a9.6 9.6 0 01-8 4.293z"/></symbol><symbol viewBox="0 0 16 16" id="cancel" xmlns="http://www.w3.org/2000/svg"><path d="M14.5 8a6.5 6.5 0 11-13 0 6.5 6.5 0 0113 0z"/><path fill-rule="evenodd" clip-rule="evenodd" d="M8.888 8.018l.852.852a.615.615 0 01-.87.87l-.852-.852-.924.924a.64.64 0 11-.906-.906l.924-.924-.852-.852a.614.614 0 11.87-.87l.852.852.924-.925a.641.641 0 01.906.907l-.924.924z"/></symbol><symbol viewBox="0 0 32 32" id="cart" xmlns="http://www.w3.org/2000/svg"><path fill-rule="evenodd" clip-rule="evenodd" d="M.433 5.333a.9.9 0 01.9-.9H4a.9.9 0 01.868.664l.922 3.38L25.392 9.77a.9.9 0 01.841.898v8a.9.9 0 01-.83.897L8.068 20.897a.9.9 0 01-.937-.66L4.222 9.57l-.91-3.337H1.334a.9.9 0 01-.9-.9zm9.773 6.449a.9.9 0 00-1.746.436l1.334 5.334a.9.9 0 001.746-.437l-1.333-5.333zm5-.34a.9.9 0 011.018.764l.667 4.667a.9.9 0 11-1.782.254l-.667-4.666a.9.9 0 01.764-1.019zm7.027 1.225a.9.9 0 00-1.8 0v4a.9.9 0 001.8 0v-4zm-8.9 12.666a2.667 2.667 0 11-5.333 0 2.667 2.667 0 015.333 0zm8 2.667a2.667 2.667 0 100-5.333 2.667 2.667 0 000 5.333z"/></symbol><symbol viewBox="0 0 20 20" id="clip" xmlns="http://www.w3.org/2000/svg"><path fill-rule="evenodd" clip-rule="evenodd" d="M7.745 17.5c-1.38 0-2.692-.555-3.693-1.563-1.99-2.002-2.072-5.177-.183-7.078l6.155-6.192c.64-.645 1.506-1 2.435-1 .994 0 1.94.399 2.66 1.124 1.434 1.442 1.49 3.735.122 5.11l-6.163 6.19a2.11 2.11 0 01-1.513.624c-.61 0-1.187-.243-1.625-.684-.878-.884-.905-2.293-.061-3.144l5.688-5.712a.832.832 0 111.18 1.175l-5.686 5.713c-.2.202-.173.558.061.793a.633.633 0 00.443.192.457.457 0 00.332-.131l6.162-6.191c.723-.728.668-1.965-.122-2.76-.755-.76-2.038-.82-2.731-.124L5.05 10.034c-1.245 1.253-1.164 3.374.183 4.728.686.691 1.578 1.071 2.51 1.071a3.04 3.04 0 002.177-.886l6.155-6.192a.833.833 0 111.182 1.175l-6.156 6.192A4.695 4.695 0 017.745 17.5z"/></symbol><symbol viewBox="0 0 24 24" id="clock-contacts" xmlns="http://www.w3.org/2000/svg"><path fill-rule="evenodd" clip-rule="evenodd" d="M12.002 22c5.523 0 10-4.477 10-10s-4.477-10-10-10-10 4.477-10 10 4.477 10 10 10zm.9-15a.9.9 0 00-1.8 0v4.853a.9.9 0 00.246.618l2.5 2.647a.9.9 0 001.308-1.236l-2.254-2.387V7z"/></symbol><symbol viewBox="0 0 8 8" id="del-prod" xmlns="http://www.w3.org/2000/svg"><path fill-rule="evenodd" clip-rule="evenodd" d="M5.776 4.036L7.48 5.739A1.23 1.23 0 015.74 7.48L4.036 5.776 2.188 7.624a1.28 1.28 0 01-1.812 0 1.28 1.28 0 010-1.812l1.848-1.848L.52 2.26A1.229 1.229 0 112.26.52l1.704 1.704L5.812.374a1.282 1.282 0 011.812 1.814L5.776 4.036z"/></symbol><symbol viewBox="0 0 18 12" id="load-more-arrow" xmlns="http://www.w3.org/2000/svg"><path d="M12.5 1.5L17 6m0 0l-4.5 4.5M17 6H1"/></symbol><symbol viewBox="0 0 32 32" id="location-exit" xmlns="http://www.w3.org/2000/svg"><path d="M29.335 16L24 10.666v4H13.335v2.667H24v4L29.335 16zm-2.667 8a13.333 13.333 0 110-16h-3.64a10.667 10.667 0 100 16h3.64z"/></symbol><symbol viewBox="0 0 24 24" id="mail-contacts" xmlns="http://www.w3.org/2000/svg"><path d="M20 4H4c-1.1 0-1.99.9-1.99 2L2 18c0 1.1.9 2 2 2h16c1.1 0 2-.9 2-2V6c0-1.1-.9-2-2-2zm0 3.53a.85.85 0 01-.399.72L12 13 4.399 8.25a.848.848 0 11.898-1.44L12 11l6.703-4.19A.848.848 0 0120 7.53z"/></symbol><symbol viewBox="0 0 24 24" id="map-contacts" xmlns="http://www.w3.org/2000/svg"><path fill-rule="evenodd" clip-rule="evenodd" d="M12 22s8-5.454 8-11.818a8.28 8.28 0 00-2.343-5.786A7.911 7.911 0 0012 2a7.91 7.91 0 00-5.657 2.396A8.277 8.277 0 004 10.182C4 16.546 12 22 12 22zm3.562-11.818c0 2.009-1.592 3.637-3.556 3.637s-3.555-1.628-3.555-3.637c0-2.008 1.591-3.636 3.555-3.636 1.964 0 3.556 1.628 3.556 3.636z"/></symbol><symbol viewBox="0 0 20 20" id="mob-menu-arrow-to-right" xmlns="http://www.w3.org/2000/svg"><path d="M12.838 10a.668.668 0 00-.2-.483L8.303 5.35a.716.716 0 00-.466-.183.668.668 0 00-.484.2.68.68 0 00.017.95l3.833 3.684-3.833 3.683c-.267.25-.267.683-.017.95.25.266.684.266.95.016l4.333-4.166c.134-.133.2-.3.2-.483z"/></symbol><symbol viewBox="0 0 16 16" id="mts" xmlns="http://www.w3.org/2000/svg"><rect width="16" height="16" rx="8"/><path d="M11.428 8.9c0 1.835-1.082 3.671-3.428 3.671-2.382 0-3.429-1.836-3.429-3.636 0-2.577 1.84-5.507 3.429-5.507 1.624 0 3.428 2.895 3.428 5.472z"/></symbol><symbol viewBox="0 0 32 32" id="orders-check" xmlns="http://www.w3.org/2000/svg"><path d="M22.667 28L19 24l1.547-1.547 2.12 2.12 4.786-4.786L29 21.667 22.667 28zm-5.6 0h-10.4C5.187 28 4 26.8 4 25.333V6.667A2.657 2.657 0 016.667 4h18.666A2.667 2.667 0 0128 6.667v10.4A7.969 7.969 0 0024 16l-1.333.107v-1.44H9.333v2.666h10.254A7.977 7.977 0 0016 24c0 1.453.387 2.827 1.067 4zM16 20H9.333v2.667H16V20zm6.667-10.667H9.333V12h13.334"/></symbol><symbol viewBox="0 0 7 11" id="pagination-arrow-toleft" xmlns="http://www.w3.org/2000/svg"><path d="M5.602 9.05l-4-4.025 4-4.025"/></symbol><symbol viewBox="0 0 7 11" id="pagination-arrow-toright" xmlns="http://www.w3.org/2000/svg"><path d="M1.398 9.05l4-4.025-4-4.025"/></symbol><symbol viewBox="0 0 20 20" id="phone" xmlns="http://www.w3.org/2000/svg"><path d="M14.334 13.874l-.652.977c-.13.195-.302.361-.528.42-.742.197-2.712.285-5.711-2.714-3-2.999-2.911-4.969-2.715-5.711.06-.227.226-.398.421-.528l.977-.652a1.583 1.583 0 00.439-2.194L4.72.705A1.583 1.583 0 002.78.128l-.832.357A2.908 2.908 0 00.493 1.857c-.257.514-.457 1.055-.484 1.63-.085 1.808.312 6.264 5.276 11.228 4.964 4.964 9.42 5.36 11.229 5.276.574-.027 1.115-.226 1.629-.483a2.908 2.908 0 001.372-1.456l.357-.832c.3-.701.058-1.517-.577-1.94l-2.767-1.845a1.583 1.583 0 00-2.194.439z"/></symbol><symbol viewBox="0 0 24 24" id="phone-contacts" xmlns="http://www.w3.org/2000/svg"><path d="M22 16.974v3.01a2.006 2.006 0 01-2.193 2.008 19.927 19.927 0 01-8.678-3.081 19.59 19.59 0 01-6.034-6.022 19.836 19.836 0 01-3.087-8.701 2.003 2.003 0 011.19-2.017c.256-.112.532-.17.811-.17h3.017a2.014 2.014 0 012.011 1.725c.128.964.364 1.91.704 2.82a2.003 2.003 0 01-.452 2.118L8.012 9.939a16.074 16.074 0 006.033 6.021l1.277-1.274a2.012 2.012 0 012.122-.452c.912.34 1.86.575 2.826.703A2.013 2.013 0 0122 16.974z"/></symbol><symbol viewBox="0 0 8 5" id="phones-toggler-arrow" xmlns="http://www.w3.org/2000/svg"><path d="M7 1L4 4 1 1"/></symbol><symbol viewBox="0 0 16 16" id="reorder" xmlns="http://www.w3.org/2000/svg"><path d="M8.001 3.333V.667L4.668 4l3.333 3.333V4.666c2.207 0 4 1.794 4 4 0 2.207-1.793 4-4 4-2.206 0-4-1.793-4-4H2.668A5.332 5.332 0 008.001 14a5.332 5.332 0 005.334-5.334A5.332 5.332 0 008 3.333z"/></symbol><symbol viewBox="0 0 20 20" id="search" xmlns="http://www.w3.org/2000/svg"><circle cx="8.333" cy="8.333" r="6.25"/><path d="M17.5 17.5l-4.583-4.583"/></symbol><symbol viewBox="0 0 24 24" id="see-more-arrow" xmlns="http://www.w3.org/2000/svg"><path d="M15.5 7.5L20 12m0 0l-4.5 4.5M20 12H4"/></symbol><symbol viewBox="0 0 14 24" id="slider-arrow-to-right" xmlns="http://www.w3.org/2000/svg"><path d="M14 12.003c0 .455-.165.868-.494 1.2L2.804 23.544a1.76 1.76 0 01-1.152.455c-.453 0-.865-.166-1.194-.496a1.693 1.693 0 01.041-2.359l9.467-9.142L.5 2.86C-.159 2.24-.159 1.164.458.502 1.075-.16 2.146-.16 2.804.46l10.702 10.343c.33.33.494.745.494 1.2z"/></symbol><symbol viewBox="0 0 10 16" id="slider-arrow-to-right-sm" xmlns="http://www.w3.org/2000/svg"><path d="M9.54 8c0 .293-.107.56-.32.773L2.287 15.44c-.214.187-.48.293-.747.293-.293 0-.56-.106-.773-.32-.4-.426-.4-1.093.026-1.52L6.927 8 .793 2.107C.367 1.707.367 1.013.767.587 1.167.16 1.86.16 2.287.56L9.22 7.227c.213.213.32.48.32.773z"/></symbol><symbol viewBox="0 0 16 16" id="table-open-arrow" xmlns="http://www.w3.org/2000/svg"><path d="M11 8.001a.68.68 0 01-.212.5l-4.586 4.31a.768.768 0 01-.494.189.715.715 0 01-.512-.207.691.691 0 01.018-.982L9.27 8 5.213 4.19a.691.691 0 01-.018-.982c.265-.276.724-.276 1.006-.017l4.586 4.31c.141.137.212.31.212.5z"/></symbol><symbol viewBox="0 0 20 20" id="user" xmlns="http://www.w3.org/2000/svg"><path d="M13.75 6.25a3.75 3.75 0 11-7.5 0 3.75 3.75 0 017.5 0z"/><path fill-rule="evenodd" clip-rule="evenodd" d="M5.768 17.05c-2.178-.475-2.939-3.025-.99-4.106 1.445-.8 3.256-1.277 5.222-1.277 1.966 0 3.777.476 5.222 1.277 1.949 1.081 1.187 3.632-.99 4.107A19.87 19.87 0 0110 17.5a19.87 19.87 0 01-4.232-.45z"/></symbol><symbol viewBox="0 0 64 56" id="user-mob-ico" xmlns="http://www.w3.org/2000/svg"><path d="M38 22a6 6 0 11-12 0 6 6 0 0112 0z"/><path fill-rule="evenodd" clip-rule="evenodd" d="M22.878 38.666c-2.13-.653-2.953-3.164-1.24-4.59 2.509-2.088 6.22-3.41 10.362-3.41 4.141 0 7.853 1.322 10.362 3.41 1.713 1.426.89 3.937-1.24 4.59C38.32 39.525 35.238 40 32 40c-3.238 0-6.321-.475-9.122-1.334z"/></symbol><symbol viewBox="0 0 7 12" id="w-cat-arrow-toright" xmlns="http://www.w3.org/2000/svg"><path d="M1 11l5-5-5-5"/></symbol></svg>